# xmcd
#
# Track frame offsets:
#	182
#	18357
#	41270
#	62800
#	77795
#	94970
#	112950
#	136420
#	156250
#	175907
#	197657
#	216050
#	232040
#	252007
#	270645
#	287145
#
# Disc length: 4086 seconds
#
# Revision: 1
# Processed by: cddbd v1.5.2PL0 Copyright (c) Steve Scherf et al.
# Submitted via: FairStars CD Ripper 1.90
#
DISCID=de0ff410
DTITLE=John Farnham - Love Songs
DYEAR=2002
DGENRE=Blues
TTITLE0=Love To Shine
TTITLE1=You're The Voice
TTITLE2=Touch Of Paradise
TTITLE3=Please Don't Ask Me
TTITLE4=She Says To Me
TTITLE5=Jillie's Song
TTITLE6=On My Own
TTITLE7=Help
TTITLE8=Listen To The Wind
TTITLE9=We're No Angels
TTITLE10=In Days To Come
TTITLE11=Burn For You
TTITLE12=I Can Do Anything
TTITLE13=Treated This Way
TTITLE14=The Reason Why
TTITLE15=Romeo's Heart
EXTD=
EXTT0=
EXTT1=
EXTT2=
EXTT3=
EXTT4=
EXTT5=
EXTT6=
EXTT7=
EXTT8=
EXTT9=
EXTT10=
EXTT11=
EXTT12=
EXTT13=
EXTT14=
EXTT15=
PLAYORDER=
